<?xml version="1.0" encoding="UTF-8"?>
<svg id="Capa_1" data-name="Capa 1" xmlns="http://www.w3.org/2000/svg" viewBox="0 0 1080 1080">
  <defs>
    <style>
      .cls-1 {
        fill: #2c89c1;
      }
    </style>
  </defs>
  <path class="cls-1" d="M122.54,28.38c1.11.22,2.52-.21,3.65,0-.43,5.55,3.4,4.31,6.16,5.7,10.01,5.05,30.36,17.11,39.46,19.85.95.28,2.5-.2,3.65,0-.44,3.88-.23,4.09,3.65,3.65.17.29,1.32-.25,1.82,0-.29,4.51,2.82,4.63,5.44,6.43,13.36,9.14,26.93,17.81,39.37,28.24l13.59,7.31c1.91,1.82,3.79,3.9,5.47,5.47,11.09,10.35,28.39,30.29,43.8,38.32.48.25,1.35-.25,1.82,0-.04,3.61,2.47,5.06,4.53,7.33,9.12,10.05,26.58,25.74,37.45,32.82,5.26,8.1,5.11,5.21,9.12,9.12.62.6,1.2,1.23,1.82,1.82,2.2,2.09,3.9,10.22,10.95,9.12,1.54,2.53,1.91,3.03,3.65,5.47.25.35-.54,1.98,1.24,3.71,1.98,1.93,6.78,4.84,9.71,5.41.27.43-.26,1.36,0,1.82,2,3.57,4.77,7.01,9.12,7.3,4.21,6.69,9.26,10.34,14.6,16.42,9.1,10.37,11.26,12.86,21.9,21.9.66.56,1.18,1.3,1.82,1.82.24,7.56,11.77,18.81,18.94,18.22,150.83-39.81,303.31-75.38,454.19-113.56,31.19-7.89,66.19-24.13,98.52-19.15,27.42,4.22,59.9,42.79,69.8,67.08,6.77,16.63,8.38,38.39-3.58,52.95-17.35,21.13-70.58,39.82-96.52,53.13-51.32,26.33-103.51,53.1-153.53,81.89-26.61,15.31-78.29,43.22-95.83,65.68-.59.75-1.41,1.28-1.82,1.82-5.9-.02-11.38,5.48-15.56,9.08-9.83,8.46-18.48,17.9-24.59,29.25-.25.47.25,1.34,0,1.82-7.18,1.47-14.34,16.45-12.51,22.46l19.76,22.31c3.05,3.81,15.58,23.34,16.93,24.18,1.86,1.15,4.14.04,5.02.41,7.13,13.18,20.12,29.71,32.85,38.32,27.35,37.17,59.82,71.49,89.37,107.28,2.6,3.15,5.67,10.36,8.15,13.25,40.35,46.94,89.62,6.22,133.31-12.89,4.59-2.01,20.14-9.45,22.64-10.14,5.2-1.45,23-1.63,28.59-.88,8.09,1.08,17.85,11.41,22.41,17.75,18,25.01,15.53,55.05-3.32,78.18-50.15,61.52-125.34,116.95-178.05,177.84-24.08,29.58-49.67,51.22-90.3,41.2-10.87-2.68-32.4-19.75-34.54-31.17-.66-3.53-.79-20.13-.03-23.3.17-.69,3.33-9.29,4.36-12.36,8.39-24.82,23.3-48.22,32.76-73.09,17.92-47.08,3.7-58.57-28.94-87.39-47.63-42.06-98.75-82.46-147.29-124.17l-41.66-37.32c-5.06-2.36-15.05,4.32-19.92,7.44-8.41,5.38-19.65,14.14-23.84,22.7-7.81,5.07-10.27,5.32-14.6,14.6-.23.5.24,1.33,0,1.82-4.71,1.79-11.68,9.8-14.56,13.73-3.86,5.27-4.69,8.72-7.34,13.65-4.92,1.6-5.57,3.69-8.8,8.54-6.82,10.25-20.52,29.92-24.05,40.73-.17.51.13,1.21,0,1.82-4.67-1.12-4.6,3.56-5.47,7.3-.13.58.14,1.25,0,1.82-4.24-.32-7.76,8.4-9.44,11.55-3.9,7.31-13.05,21.8-14.29,28.6-.2,1.11.13,2.47,0,3.65-4.59,0-4.8,1.76-5.47,5.47-.21,1.14.27,2.64,0,3.65-4.17.02-6.26,2.26-5.44,6.34l1.79.96c-.57,1.3-1.26,2.43-1.82,3.65-5.22.23-7.78,8.57-10.06,12.75-7.71,14.12-31.54,54.75-33.73,67.55-.19,1.12.12,2.46,0,3.65-5.85,0-4.96,3.1-5.47,7.3-.21,1.75.32,3.88,0,5.47-6.7-1.41-4.39,1.52-6.09,3.9-4.68,6.54-7.9,11.74-8.51,19.82-.05.6.04,1.22,0,1.82-4.95-.34-4.5,2.92-6.02,5.85-8.14,15.68-16.41,34.35-23.18,50.73-.53,1.28-1.04,3.45-1.82,5.47l-19.14,20.1c-14.67,9.11-22.4,10.45-38.82,5.93-25.51-7.04-47.09-24-64.27-43.4l-16.46-24.6c.14-3.02-.01-6.09,0-9.12.03-8.25-.89-18.42.16-26.31,2.33-17.52,14.77-37.58,14.44-55.82-.02-1.21-.02-2.44,0-3.65,7.16-3.41,4.44-11.14,5.92-16.89,37.65-146.16,74.39-293.34,112.28-440.68.85-4.67,1.56-9.86-2.21-13.37-61.97-63.23-128.29-122.97-183.46-192.48-32.67-41.16-62.66-86.66-76.7-137.73.2-7.15-1.1-17.32,0-23.72,1.19-6.9,8.9-19.96,13.66-25.57,21.4-25.18,50.56-18.6,79.41-12.75Z"/>
</svg>