<?xml version="1.0" encoding="UTF-8"?>
<svg id="Capa_1" data-name="Capa 1" xmlns="http://www.w3.org/2000/svg" viewBox="0 0 1080 1080">
  <defs>
    <style>
      .cls-1 {
        fill: #2d8bc0;
      }
    </style>
  </defs>
  <path class="cls-1" d="M672,39.79c-1.39,5.19,5.84,2.91,9.79,4.89,2.62,1.87,3.02,2.33,4.89,4.89.45.62,1.05,1.13,1.63,1.63,1.67,1.75,4.06,4.32,4.89,6.53l-1.65.87,1.65,2.39c.58,2.51,1.45,3.8,1.7,7.23,4.59,63.47-.07,138.44-.07,203.21-2.48,6.24-2.32,17.09-1.66,23.69.18,1.85-.83,3.73,1.66,4.04,2.53.31,8.26-3.25,10.88-4.62,66.46-34.69,130.18-81.21,196.83-116.39,21.65-9.07,30.71,1.17,41.57,17.73,37.85,57.67,69.37,122.02,106.98,180.14,8.4,14.96,2.36,29.83-10.53,39.68-69.63,41.22-140.2,81.01-208.67,124.09l206.38,123.12c17.76,9.92,20.1,28.85,9.21,45.18l-114.41,187.39c-8.62,8.07-22.48,11.13-33.29,5.43l-204.95-123.77-1.63,239.81c-2.81,11.8-11.21,19.57-23.65,21.21-73.16-4.86-154.66,6.45-226.83.06-14.31-1.27-23.52-10.35-25.22-24.54v-194.13c-.06-11.56,1.42-27.55,0-38.37-.3-2.25.89-2.85-2.39-2.37l-200.9,122.12c-13.01,5.66-24.42,3.79-34.88-5.54l-116.73-193.23c-5.97-11.17-4.53-22.9,3.51-32.54,70.68-45.17,144.85-85.16,215.96-129.86l-208.99-123.77c-13.24-7.92-18.66-23.99-11.83-38.36,38.85-58.21,69.79-127.27,109.25-184.39,8.05-11.66,16.43-20.61,32.12-17.71,72.79,39.58,143.17,83.73,214.89,125.24V61.81c0-7.03,15.28-22.38,23.62-22.06l230.87.04Z"/>
</svg>