<?xml version="1.0" encoding="UTF-8"?>
<svg id="Capa_1" data-name="Capa 1" xmlns="http://www.w3.org/2000/svg" viewBox="0 0 1080 1080">
  <defs>
    <style>
      .cls-1 {
        fill: #2d8bc0;
      }
    </style>
  </defs>
  <path class="cls-1" d="M635.47,140.14v332.86c0,1.14.92,2.06,2.06,2.06h253.69c36.86,0,66.74,29.88,66.74,66.74v329.68c0,1.14.92,2.06,2.06,2.06h116.22s0,0,.01,0c1.37-.15,2.64.61,2.64,1.98v25.63c0,1.14-.92,2.06-2.06,2.06H3.17c-1.14,0-2.06-.92-2.06-2.06v-26.6c0-1.14.92-2.06,2.06-2.06h193.18c1.14,0,2.06-.92,2.06-2.06V140.14c0-36.86,29.88-66.74,66.74-66.74h303.58c36.86,0,66.74,29.88,66.74,66.74ZM381.99,185.74h-75.96c-2.01,0-3.65,1.64-3.65,3.65v71.65c0,1.14.92,2.06,2.06,2.06h77.55c1.14,0,2.06-.92,2.06-2.06v-73.24c0-1.14-.92-2.06-2.06-2.06ZM533.64,261.03v-71.65c0-2.01-1.64-3.65-3.65-3.65h-74.32c-.23,0-.83.58-1.51.91-.71.34-1.14,1.06-1.14,1.85v72.55c0,1.14.92,2.06,2.06,2.06h76.49c1.14,0,2.06-.92,2.06-2.06ZM531.57,293.83h-76.49c-1.14,0-2.06.92-2.06,2.06v73.24c0,1.14.92,2.06,2.06,2.06h76.49c1.14,0,2.06-.92,2.06-2.06v-73.24c0-1.14-.92-2.06-2.06-2.06ZM531.57,493.07h-76.49c-1.14,0-2.06.92-2.06,2.06v73.24c0,1.14.92,2.06,2.06,2.06h76.49c1.14,0,2.06-.92,2.06-2.06v-73.24c0-1.14-.92-2.06-2.06-2.06ZM764.95,540.76h-76.49c-1.14,0-2.06.92-2.06,2.06v74.29c0,1.14.92,2.06,2.06,2.06h76.58c1.37,0,2.1-1.27,1.98-2.64,0,0,0,0,0,0v-73.71c0-1.14-.92-2.06-2.06-2.06ZM884.82,667.94h-76.49c-1.14,0-2.06.92-2.06,2.06v73.24c0,1.14.92,2.06,2.06,2.06h76.49c1.14,0,2.06-.92,2.06-2.06v-73.24c0-1.14-.92-2.06-2.06-2.06ZM381.99,671.12h-77.55c-1.14,0-2.06.92-2.06,2.06v75.35c0,1.14.92,2.06,2.06,2.06h77.55c1.14,0,2.06-.92,2.06-2.06v-75.35c0-1.14-.92-2.06-2.06-2.06ZM531.57,671.12h-76.49c-1.14,0-2.06.92-2.06,2.06v75.35c0,1.14.92,2.06,2.06,2.06h76.49c1.14,0,2.06-.92,2.06-2.06v-75.35c0-1.14-.92-2.06-2.06-2.06Z"/>
</svg>