<?xml version="1.0" encoding="UTF-8"?>
<svg id="Capa_1" data-name="Capa 1" xmlns="http://www.w3.org/2000/svg" viewBox="0 0 1080 1080">
  <defs>
    <style>
      .cls-1 {
        fill: #2d8bc0;
      }
    </style>
  </defs>
  <path class="cls-1" d="M47.38,649.6c.44-.23,2.12.5,2.65-.16l.21-461.39h545.86l-.02,62.05c-.2,1.31,2.25,1.08,2.88.82,1.83-.75,6.28-8.45,8.54-10.75,4.48-4.57,9.18-8.37,14.33-12.11,2.49.3,9.37-3.17,8.57-5.72.85-.38,1.77-.95,2.86-1.43,9.29-4.12,22.5-8.92,32.4-11.25,2.58-.61,5.6,1.38,4.75-3.04,1.86-.04,3.88-.16,5.72,0,2.23.19,9.59,4.74,8.57-1.43,1.4-.12,2.87.03,4.29,0h248.64c2.38.01,4.76-.04,7.14,0-1.28,4.16,4.12,3.21,7.88,2.81,2.34-.25,2-1.37,2.13-1.38,1.41-.12,2.87.04,4.29,0-.67,5.76,2.83,1.61,4.29,1.43.88-.11,1.95-.04,2.86,0-.53,3.23.64,4.06,2.86,1.43.9.15,2.05-.2,2.86,0-.85,3.95,2.04,2.68,4.26,3.53,7.45,2.84,17.35,6.11,24.32,9.33,1.01.47,1.9.97,2.86,1.43-.14,2.43-.51,3.34,2.13,2.84l.73-1.41c16.34,8.62,33.68,27.7,41.44,44.3s13.31,34.36,15.78,53.58c.34,2.67-1.82,5.8,2.79,5-.02,2.38.04,4.77,0,7.14-1.7,114.18-6.47,237.96,0,351.53.05.95-.07,1.91,0,2.86-4.28-1.43-3.17,5.46-2.82,9.32.22,2.31,1.38,1.99,1.39,2.12.05,1.42.04,2.87,0,4.29-4.14-.85-2.61,2.05-3.26,4.53-3.08,11.75-7.26,22.6-11.03,34.05-1,1.85-1.33,3.24-2.86,5.72-2.43-.14-3.34-.51-2.84,2.13l1.41.73c-12.94,19.57-30.5,34.88-52.86,42.87-10.8-33.71-40.37-64.66-72.89-78.6.64-2.99-1.54-3.2-3.52-4.24-7.92-4.18-29.65-9.45-38.62-10.12-2.62-.19-5.89-1.12-5.02,2.93-4.01-.23-8.85-.23-12.86,0,.87-4.04-2.39-3.13-5.01-2.94-2.81.2-7.51,1.19-10.45,1.88-2.65.62-4.54-.79-4.54,3.92-28.09,5.49-57.06,23.63-75.8,44.99-5.44,6.2-9.03,13.81-14.23,19.32-2.84,3-2.07-1.11-4.29,7.14-.12.44.13.99,0,1.43-2.87-1.13-5.02,4.57-5.49,6.75-.49,2.28,1.23,1.71,1.2,1.82-.39,1.57-1.11,2.99-1.43,4.29-4.4-1.01-3.95,7.83-5.72,11.43h-350.1c-1.04-3.85-1.39-13.78-5.72-12.86-.37-1.36-1-2.82-1.43-4.29-3.65-12.54-5.6-16.13-14.29-25.72-.44-.49-.96-.96-1.43-1.43.12-6.32-1.62-6.26-5.72-8.57-3.74-6.34-2.18-3.56-7.14-7.14-1.52-1.1-2.14-2.3-2.86-2.86-.79-5.36-1.46-6.59-7.14-5.72-1.33-1.03-2.36-2.5-2.86-2.86.74-3.6-1.15-3.09-4.29-2.86-.57-.42-.97-1.1-1.43-1.43.74-3.54-1.2-3.14-4.29-2.86-.63-.39-1.82-.83-2.86-1.43.78-1.6-5.31-5.67-6.1-6.12-12.76-7.2-37.32-15.92-51.91-16.71-2.57-.14-4.83.59-6.3,2.82-4.09-.24-8.74-.16-12.86,0,1.58-4.98-12.28-4.36-11.43,1.43-.91.13-1.96-.15-2.86,0,.54-5.14-1.67-2.06-3.89-1.64-13,2.45-23.94,6.57-35.83,12.64-2.31,1.18-4.84.85-4.58,4.71-.94.49-1.93.91-2.86,1.43-6.78-.87-6,3.02-7.14,4.29-.46.51-.94.95-1.43,1.43-3.1-.26-5.02-.7-4.29,2.86-.49.45-.9,1-1.43,1.43-5.61-1.27-4.7,3.15-5.72,4.29-6.44,7.24-13.29,14.44-20.01,21.43-4.92,5.12-4.08,3.12-7.14,10-.46,1.03-.98,1.9-1.43,2.86-3.46-.76-2.96,1.76-4.03,3.76-4.9,9.19-6.59,16.53-10.37,25.14-.57,1.31-3.61,1.18-2.75,3.96-14.5,1.06-35.41.86-50.01,0,.44-6.09-7.46-3.23-10.21-3.66-2.89-.45-6.96-1.32-9.8-2.05-16.51-4.29-27.53-18.46-31.84-34.61-4.1-15.38-4.27-63.1-.61-78.58,4.09-17.28,11.29-23.79,25.31-32.57,2.96.35,4.97.54,4.29-2.86.72-.42,1.14-1.28,1.43-1.43ZM178.85,496.7h91.45v92.88h92.88v-92.88h91.45v-94.31h-91.45v-90.02h-92.88v91.45h-91.45l-2.88.85v91.18l2.88.85ZM921.91,332.37h-245.78v190.05c81.43-.11,162.93.15,244.35,0,.25,0,1.72,1.56,4.71,1.4,12.23-.66,26.55-9.59,33.87-17.11,8.96-9.22,16.42-18.86,21.09-31.06,9.42-24.57,7.78-86.71-7.08-109.42-7.43-11.36-17.97-15.96-24.02-23.85-1.78-2.33,2.76-1.58-4.29-2.86-.47-.09-1,.11-1.43,0,1.33-3.33-9-6.22-11.49-6.6-2.18-.32-2.65.89-2.8.88-.94-.06-1.91,0-2.86,0,1.13-3.7-3-4.22-4.29-1.43ZM835.46,706.76v1.43c.93-.48.93-.95,0-1.43Z"/>
  <path class="cls-1" d="M308.88,918.25l-20.13,9.19c-15,5.93-28.18,6.94-45.32,5.51-2.73-.23-5.25-2.08-4.57,2.45-.92-.12-1.97.15-2.86,0,.11-4.54-1.82-3.11-4.13-3.79-7.13-2.07-14.55-3.52-21.59-6.22-39.56-15.2-60.18-62.38-52.48-103.21,12.38-65.7,88.68-99.76,145.83-63.73,57.84,36.47,60.47,119.29,5.25,159.79Z"/>
  <path class="cls-1" d="M854.75,745.34c1.26,1.39-2.91,3.31,6.46,2.93,7.17-.29,12.42-1.4,17.83-2.93.7-.2,1.94.04,2.86,0l9.59,5.14c5.3.32,12.48,2.81,17.56,4.86,7.65,3.1,10.61,5.16,17.15,10-.46,4.6,6.37,8.92,10.07,12.1.86.74,2.47.49,2.79.76,1.23,1.07,1.92,1.98,2.86,2.86l7.34,14.85,4.09,3.73c.14.43-.13.99,0,1.43,10.14,33.47,8.06,51.5-1.43,82.88-.45,1.5-.9,2.82-1.43,4.29-2.95-.78-4.34,4.72-5.72,7.14-3.53,1.73-4.08.68-4.29,7.14-5.84,7.67-14.74,14.98-22.86,20.01l-.87-1.19c-2.66.34-5.67.79-4.85,4.05-.91.41-1.62,1.01-2.86,1.43l-.73-1.41c-2.64-.5-2.27.41-2.13,2.84-.44.12-.99-.12-1.43,0-5.07,1.4-15.7,4.14-20.68,4.96-2.81.46-12.36-3.11-12.19,3.61-.95.04-1.91,0-2.86,0,1.69-3.47-7.23-3.96-10.79-4.27-3.56-.3-5.7-.99-4.93,2.84-.91-.12-1.97.15-2.86,0-.52-5.11-10.47-4.36-14.94-6.18-2.42-.99-7.84-5.16-10.46-6.29-1.52-.65-6.38-2.59-7.47-.4-.65-.4-1.01-1.16-1.43-1.43.74-3.57-1.18-3.11-4.29-2.86-7.73-5.81-12.23-9.49-18.58-17.15.54-2.9-2-5.46-3.53-7.84-1.17-1.81-2.66-5.65-5.05-5.02-2.62-4.52-3.69-6.56-5.72-11.43,1.4-3.23-1.2-10.15-2.23-13.65-.67-2.29.25-4.2-3.49-3.5-.18-.86.16-1.97,0-2.86,5.17,1.66,2.84-8.22-1.43-7.14-.14-1.4.08-2.87,0-4.29,3.28-2.5,4.95-9.9,0-8.57.07-1.42-.13-2.88,0-4.29,3.95.85,2.85-2.02,3.3-4.59,1.45-8.18,1.46-12.61,4.72-20.97.81-2.07,4.44-3.29-.88-3.02,2.01-4.9,3.09-6.91,5.72-11.43,2.45.6,3.79-3.13,5.05-5.02,1.52-2.28,4.07-5.02,3.53-7.84,4.27-5.12,7.85-8.54,12.86-12.86,6.03,1.46,6.76-4.01,7.14-4.29,8.29-5.95,24.07-11.24,34.06-13.89,2.48-.66,5.38.88,4.53-3.26.81.03,2.71-.16,2.86,0Z"/>
</svg>