<?xml version="1.0" encoding="UTF-8"?>
<svg id="Capa_1" data-name="Capa 1" xmlns="http://www.w3.org/2000/svg" viewBox="0 0 80 80">
  <defs>
    <style>
      .cls-1 {
        fill: #fff;
      }

      .cls-2 {
        fill: #3188c0;
      }
    </style>
  </defs>
  <path class="cls-2" d="M58.06,18.39h12.26c2.09,0,5.17,2.96,5.29,5.13l.02,42.06c-.32,3.34-3.21,5.57-6.46,5.7H10.67c-2.95-.23-5.17-1.97-6.02-4.79-.56-13.96-.09-28.02-.24-42.02-.05-2.57,2.91-6.08,5.5-6.08h12.26v-4.92c0-3.87,2.7-7.58,6.65-8.02,7.23.36,14.84-.42,22.01-.08,3.62.17,7.24,3.61,7.24,7.32v5.69h0ZM28.91,13.66c-.24,1.35.18,3.31,0,4.73h22.39v-4.92c0-.57-1.03-1.31-1.64-1.26-6.09.43-12.92-.55-18.93,0-.86.08-1.66.53-1.82,1.46h0ZM45.9,39.42v-7.82c0-.41-.99-1.17-1.46-1.24-1.58-.25-6.41-.18-8.1-.02-.74.07-1.82.61-1.82,1.46v7.62c-1.61-.27-3.64-.29-5.31-.19-.56.03-1.8.13-2.28.23-1.03.22-1.23,1.28-1.3,2.17-.15,1.73-.16,5.05,0,6.76.08.79.46,2.22,1.45,2.22h7.43v7.82c0,.7,1.21,1.34,1.85,1.43,1.6.23,5.45.16,7.13.02.74-.06,2.4-.55,2.4-1.46v-7.82h7.43c.44,0,1.16-.75,1.24-1.27.26-1.62.18-6.56.02-8.3-.23-2.55-3.09-1.6-4.74-1.61-1.25,0-2.62-.51-3.96-.02l.02.02ZM52.27,38.85h-5.79v.19h5.79v-.19ZM25.44,49.46v-6.56h-.19v5.31c0,.27-.27.78,0,1.25h.19Z"/>
  <g>
    <rect class="cls-1" x="32.79" y="26.54" width="14.66" height="35.57" rx="2.4" ry="2.4"/>
    <rect class="cls-1" x="32.79" y="26.54" width="14.66" height="35.57" rx="3.29" ry="3.29" transform="translate(-4.2 84.45) rotate(-90)"/>
  </g>
</svg>