<?xml version="1.0" encoding="UTF-8"?>
<svg id="Capa_1" data-name="Capa 1" xmlns="http://www.w3.org/2000/svg" viewBox="0 0 80 80">
  <defs>
    <style>
      .cls-1 {
        fill: #3188c0;
      }
    </style>
  </defs>
  <path class="cls-1" d="M50.54,4.05c-9.71,0-17.58,7.87-17.58,17.58s7.87,17.58,17.58,17.58,17.58-7.87,17.58-17.58-7.87-17.58-17.58-17.58ZM59.51,16.38l-10.87,13.22c-.25.31-.7.34-.99.08-1.68-1.53-6.34-5.46-6.27-5.85.04-.21,1.15-1.2,1.86-1.94.33-.35.88-.37,1.25-.05l3.27,2.9,9.14-11.28c.19-.11.42-.02.6.07.22.12,1.29,1.02,1.96,1.65.34.32.36.84.07,1.2Z"/>
  <path class="cls-1" d="M3.8,49.73c.2-.66,1.63-.23,2.06-.22,7.1.12,9.51-4.01,15.11-6.91,4.56-2.36,7.86-1.84,12.71-1.8,3.22.03,7.67-.38,10.71-.01,3.34.41,3.57,6.18.38,7.12-2.94.87-7.78-.27-10.9.26-2.72.46-2.97,4.12-.26,4.93l15.86,4.78c1.04.14,1.35.02,2.22-.45,4.46-2.42,9.66-6.35,13.97-9.26,1.24-.84,2.76-2.32,4.17-2.71,5.11-1.41,8.81,4.43,5.12,8.33-5.27,4.09-10.56,8.18-15.74,12.39-3.28,2.66-6.61,5.93-9.94,8.4-1.9,1.41-3.24,1.64-5.58,1.15-11.32-2.83-22.74-7.25-34.09-9.78-.9-.2-1.93-.43-2.83-.53-.44-.05-2.98.16-2.98-.54v-15.13Z"/>
</svg>