<?xml version="1.0" encoding="UTF-8"?>
<svg id="Capa_1" data-name="Capa 1" xmlns="http://www.w3.org/2000/svg" viewBox="0 0 80 80">
  <defs>
    <style>
      .cls-1 {
        fill: #3188c0;
      }
    </style>
  </defs>
  <path class="cls-1" d="M54.42,12.3c2.07,1.03,3.9,2.43,5.75,3.79,2.62-1.27,4.64-4.76,7.26-1.32,2.23,2.93,4.11,6.17,6.27,9.16,1.14,2.98-2.74,3.93-4.4,5.5.68,2.18,1.17,4.44,1.4,6.72,2.67.87,6.81.06,6.21,4.13-.44,3-1.35,7.44-2.16,10.36-1.03,3.71-4.67,1.48-7.29,1.28-.87,2.03-2.23,3.81-3.55,5.57-.05.29,2.23,3.28,2.51,3.92.63,1.44.02,2.36-1.1,3.21-2.96,2.28-6.37,4.24-9.4,6.46-1.46.47-2.26-.18-3.09-1.27-.78-1.02-1.47-2.26-2.18-3.34-2.23.62-4.5,1.18-6.83,1.31-.81,2.34-.2,6.59-3.81,6.22s-7.63-1.78-11.3-2.29c-2.82-1.14-1.07-3.99-.88-6.05.02-.22.07-.47-.1-.63-1.89-1.07-3.7-2.29-5.34-3.72l-4.31,2.92c-1.97.75-2.94-.89-3.92-2.24-1.98-2.71-3.74-5.61-5.65-8.37-1.08-2.86,2.72-3.93,4.4-5.36l.15-.27c-.7-2.14-1.1-4.36-1.39-6.6-.19-.23-3.71-.76-4.35-.94-1.95-.55-2.17-1.83-1.87-3.64.59-3.5,1.56-6.98,2.27-10.46,1.18-2.99,4.89-.83,7.16-.77.9-2.07,2.2-3.96,3.67-5.67l-2.77-4.21c-.63-1.85.73-2.73,1.99-3.68,2.27-1.71,5.43-3.98,7.83-5.44,3.16-1.92,4.14,2.23,5.69,3.85.11.11.19.26.37.27,2.2-.68,4.45-1.22,6.75-1.44.9-2.34.16-6.53,3.81-6.2,3.55.33,7.6,1.83,11.2,2.28,3.27,1.25.98,4.53.97,6.96ZM39.71,26.06c-4.79.45-9.05,4.3-10.36,8.84-3.12,10.77,8.42,19.84,18.12,14.23,11.4-6.59,5.9-24.34-7.75-23.07Z"/>
</svg>