<?xml version="1.0" encoding="UTF-8"?>
<svg id="Capa_1" data-name="Capa 1" xmlns="http://www.w3.org/2000/svg" viewBox="0 0 80 80">
  <defs>
    <style>
      .cls-1 {
        fill: #3188c0;
      }
    </style>
  </defs>
  <path class="cls-1" d="M27.64,50.8c3.87-.79,19.21-.56,23.6-.14,6.31.59,8.53,6.7,8.16,12.42-.2,3-.62,5.13-3.96,5.52-6.68.78-22.69.63-29.52.02-2.04-.19-3.84-.8-4.34-3.03-1.08-4.83.23-13.59,6.06-14.77v-.02Z"/>
  <path class="cls-1" d="M27.78,46.46c-5.1,1.13-9.22,5.33-10.05,10.49-3.96-.19-8.45.44-12.35.08-2.97-.27-3.6-.96-3.92-3.97s-.43-14.8.24-17.13c.57-2.01,2.85-3.72,4.88-4.07,1.82-.33,15.93-.45,17.18-.04,1.48.48.69,6.4,1.1,8.38.48,2.29,2.24,4.08,2.93,6.28h0Z"/>
  <path class="cls-1" d="M52.53,46.99c-.03-1.99,1.75-3.22,2.53-5.11,1.4-3.43,1.34-6.57.63-10.16,5.87.98,19.46-2.76,22.32,3.74,1.21,2.73,1.24,14.29.86,17.6-.76,6.5-10.83,3.2-15.46,3.85-1.68-1.9-2.22-4.56-4.08-6.44-1.57-1.58-4.54-3.23-6.79-3.49Z"/>
  <path class="cls-1" d="M57.13,4.99c18.55-3.13,19.39,24.93.92,23.04-12.78-1.3-13.02-21-.92-23.04Z"/>
  <path class="cls-1" d="M17.63,4.99c17.61-2.99,19.17,22.83,2.89,23.43-14.65.54-15.63-21.27-2.89-23.43Z"/>
  <path class="cls-1" d="M39.8,24.48c14.75-.55,16.39,21.13,2.95,23-18.29,2.53-18.73-22.41-2.95-23Z"/>
</svg>