<?xml version="1.0" encoding="UTF-8"?>
<svg id="Capa_1" data-name="Capa 1" xmlns="http://www.w3.org/2000/svg" viewBox="0 0 80 80">
  <defs>
    <style>
      .cls-1 {
        fill: #3188c0;
      }
    </style>
  </defs>
  <path class="cls-1" d="M20.22,63.09c.02,2.42.63,7.61-2.38,8.49-1.23.36-11.03.32-12.43,0-2.93-.67-4.19-4.01-4.42-6.7-.49-5.77-.6-21.03,1.29-26.05.94-2.49,2.84-4.36,3.79-6.83-5.6-.02-5.55-.72-5.08-6.09.53-6.09,6.22-1.76,9.13-3.5,1.54-.93,2.03-9.14,5.97-11.72,1.28-.84,2.64-1.53,4.11-1.98,12.38.3,25.99-1.17,38.23-.25,9.43.71,8.32,5.82,11.11,12.16,1.97,4.47,8.83-.36,9.39,4.27s.84,7.6-4.58,7.11c1.22,3.3,4.02,6.04,4.52,9.65.71,5.15.53,18.37.07,23.74-.28,3.12-1.46,5.75-4.86,6.26-1.78.28-9.38.31-10.96-.1-3.33-.84-3.68-5.63-3.41-8.47H20.22ZM65.73,32.74c-1.49-3.4-2.71-13.36-4.6-15.88-.96-1.27-2.8-1.23-4.23-1.34-9.23-.64-24.78-.76-33.92,0-4.19.35-3.9,1.53-5.03,5.08-1.21,3.75-2.16,8.27-2.78,12.14h50.58,0ZM12.45,42.93c-1.32.44-1.1,7.78-.35,8.31.5.34,8.72.39,9.92.25,4.19-.5,2.22-8.08-2.55-8.63-1.15-.13-6.19-.19-7.02.09h0ZM59.52,42.97c-2.59.75-4.46,6.8-2.42,8.27.7.51,10.49.4,10.94-.26s.44-7.42-.25-7.91c-.54-.38-7.35-.38-8.27-.11h0Z"/>
</svg>