<?xml version="1.0" encoding="UTF-8"?>
<svg id="Capa_1" data-name="Capa 1" xmlns="http://www.w3.org/2000/svg" viewBox="0 0 80 80">
  <defs>
    <style>
      .cls-1 {
        fill: #3188c0;
      }
    </style>
  </defs>
  <path class="cls-1" d="M48.16,68.74v-20.47c0-1.14.51-2.1-1.15-3.09-1.11-.66-10.86-.67-12.75-.45-4.41.52-2.61,3.65-2.56,6.34.11,5.89-.12,11.79-.02,17.67H13.58c-1,0-2.85-2.41-3.03-3.55-.53-3.36-.13-9.95-.05-13.64.03-1.3,1.43-11.04-.22-11.04H3.22c-2.88,0-3.75-7.52-.94-8.93L37.94,8.87c1.14-.54,2.46-.54,3.66-.15,10.74,7.7,23.88,13.8,34.39,21.6,2.98,2.21,4.05,3.4,3.13,7.49-1.08,4.8-9.01,1.32-9.72,3.46l-.1,23.9c.13,1.1-2.28,3.55-3.03,3.55h-18.11Z"/>
</svg>