<?xml version="1.0" encoding="UTF-8"?>
<svg id="Capa_1" data-name="Capa 1" xmlns="http://www.w3.org/2000/svg" viewBox="0 0 80 80">
  <defs>
    <style>
      .cls-1 {
        fill: none;
        stroke-width: 10.12px;
      }

      .cls-1, .cls-2 {
        stroke: #3188c0;
        stroke-miterlimit: 10;
      }

      .cls-2 {
        fill: #3188c0;
        fill-rule: evenodd;
        stroke-width: .25px;
      }
    </style>
  </defs>
  <circle class="cls-1" cx="41.07" cy="41.43" r="16.19"/>
  <path class="cls-2" d="M41.7,75.05c-19.06,0-34.64-14.86-35.36-33.92-.1-1.03-.82-1.74-1.84-1.74h-2.28c-.63,0-.96-.74-.55-1.21l7.03-7.99c.49-.56,1.35-.56,1.85,0l7.07,7.95c.43.49.09,1.26-.57,1.26h-2.72c-.51,0-.92.2-1.33.51-.31.41-.51.92-.41,1.44.84,15.72,14.22,28.12,30.16,27.55,15.24-.54,27.52-12.95,28.04-28.19s-11.08-28.43-26.07-30c-.72-.08-1.28-.68-1.28-1.41v-3.49c0-.8.68-1.43,1.48-1.36,18.05,1.64,32.14,16.9,32.14,35.25,0,19.57-15.89,35.36-35.36,35.36h0ZM42.41,18.68c-13.45,0-24.15,12.09-21.82,26.09,1.53,9.18,8.81,16.45,17.99,17.97,13.99,2.32,26.07-8.38,26.07-21.82,0-12.3-9.94-22.24-22.24-22.24h0ZM41.37,34.22c-.12-.32-.6-.24-.6.11v7.31l7.67,5.88c.31.24.71-.16.47-.47l-5.48-7.26-2.06-5.57ZM41.39,22.88c0-.71.54-1.28,1.32-1.09.5.13.83.6.83,1.11v2.76c0,.78-.33,1.26-.83,1.38-.77.19-1.32-.38-1.32-1.09v-3.08ZM27.45,42.04h-3.1c-.63,0-1.17-.54-1.09-1.16.07-.55.55-.99,1.12-.99h3.06c.51,0,.99.33,1.11.83.19.78-.39,1.32-1.09,1.32h0ZM32.58,52.39l-2.15,2.15c-.2.21-.51.31-.82.31-.2,0-.52-.1-.72-.31-.41-.41-.41-1.13,0-1.54l2.15-2.15c.41-.51,1.13-.51,1.54,0,.51.41.51,1.13,0,1.54h0ZM32.58,31.18c-.2.21-.41.31-.72.31s-.61-.1-.82-.31l-2.15-2.26c-.41-.41-.41-1.13,0-1.54.41-.41,1.13-.41,1.54,0l2.15,2.15c.51.51.51,1.13,0,1.64h0ZM43.54,59.06c0,.61-.51,1.13-1.13,1.13-.58,0-1.02-.52-1.02-1.09v-3.15c0-.58.44-1.09,1.02-1.09.62,0,1.13.51,1.13,1.13v3.08ZM56.04,54.55c-.2.21-.51.31-.82.31s-.51-.1-.72-.31l-2.26-2.15c-.41-.41-.41-1.13,0-1.54.41-.51,1.13-.51,1.64,0l2.15,2.15c.41.41.41,1.13,0,1.54h0ZM56.04,28.93l-2.15,2.26c-.31.21-.51.31-.82.31s-.61-.1-.82-.31c-.41-.51-.41-1.13,0-1.64l2.26-2.15c.41-.41,1.13-.41,1.54,0,.41.41.41,1.13,0,1.54h0ZM60.56,42.04h-3.1c-.63,0-1.17-.54-1.09-1.16.07-.55.55-.99,1.12-.99h3.06c.51,0,.99.33,1.11.83.19.78-.38,1.32-1.09,1.32h0Z"/>
</svg>